# xmcd
#
# Track frame offsets:
#	150
#	15083
#	32448
#	49405
#	62455
#	76230
#	89006
#	107728
#
# Disc length: 1593 seconds
#
# Revision: 0
# Processed by: cddbd v1.5.2PL0 Copyright (c) Steve Scherf et al.
# Submitted via: audiograbber 1.83.01
#
DISCID=54063708
DTITLE=Various Artist - North County Records - VOL # 23 Country
DYEAR=2009
DGENRE=Country
TTITLE0=Lee Dinwoodie - Paycheck to Paycheck
TTITLE1=Kenny Hess - Throwing Whisky On The Flames
TTITLE2=GoneWest - We're Here For A Good Time
TTITLE3=Steve Stairs - Happy Hour At Three
TTITLE4=Deb Stone - Where Does That Leave Me
TTITLE5=Sister Girl - Its a Lonely Place
TTITLE6=Lawrence Bourgeois - Country Star
TTITLE7=Jay Bradley - We Fell Out Of Love
EXTD=
EXTT0=
EXTT1=
EXTT2=
EXTT3=
EXTT4=
EXTT5=
EXTT6=
EXTT7=
PLAYORDER=
